<svg xmlns="http://www.w3.org/2000/svg" width="640" height="640" viewBox="0 0 640 640" role="img" aria-label="WeChat QR Placeholder">
  <defs>
    <linearGradient id="bg" x1="0" y1="0" x2="1" y2="1">
      <stop offset="0%" stop-color="#f8fafc"/>
      <stop offset="100%" stop-color="#e2e8f0"/>
    </linearGradient>
  </defs>
  <rect x="0" y="0" width="640" height="640" fill="url(#bg)"/>
  <rect x="48" y="48" width="544" height="544" rx="24" fill="#ffffff" stroke="#cbd5e1" stroke-width="8"/>
  <g fill="#0f172a">
    <rect x="92" y="92" width="96" height="96" rx="8"/>
    <rect x="452" y="92" width="96" height="96" rx="8"/>
    <rect x="92" y="452" width="96" height="96" rx="8"/>
    <rect x="228" y="228" width="24" height="24"/>
    <rect x="276" y="228" width="24" height="24"/>
    <rect x="324" y="228" width="24" height="24"/>
    <rect x="372" y="228" width="24" height="24"/>
    <rect x="228" y="276" width="24" height="24"/>
    <rect x="324" y="276" width="24" height="24"/>
    <rect x="420" y="276" width="24" height="24"/>
    <rect x="228" y="324" width="24" height="24"/>
    <rect x="276" y="324" width="24" height="24"/>
    <rect x="372" y="324" width="24" height="24"/>
    <rect x="420" y="324" width="24" height="24"/>
    <rect x="228" y="372" width="24" height="24"/>
    <rect x="324" y="372" width="24" height="24"/>
    <rect x="372" y="372" width="24" height="24"/>
    <rect x="420" y="372" width="24" height="24"/>
  </g>
  <text x="320" y="532" text-anchor="middle" font-size="30" fill="#334155" font-family="Arial, sans-serif">请替换为真实微信二维码</text>
  <text x="320" y="570" text-anchor="middle" font-size="28" fill="#0f172a" font-family="Arial, sans-serif">微信号: simonsxx1</text>
</svg>
